HIERARCHY
ROOT Hips
{
  OFFSET -31.5692 30.0904 122.763
  CHANNELS 6 Xposition Yposition Zposition Zrotation Xrotation Yrotation
  JOINT LeftUpLeg
  {
    OFFSET 8.64259 1.95398 -2.38835
    CHANNELS 3 Zrotation Xrotation Yrotation
    JOINT LeftLeg
    {
      OFFSET 43.7702 0 0
      CHANNELS 3 Zrotation Xrotation Yrotation
      JOINT LeftFoot
      {
        OFFSET 40.6238 0 0
        CHANNELS 3 Zrotation Xrotation Yrotation
        JOINT LeftToeBase
        {
          OFFSET 12.7242 0 0
          CHANNELS 3 Zrotation Xrotation Yrotation
          End Site
          {
            OFFSET 0 0 0
          }
        }
      }
    }
  }
  JOINT RightUpLeg
  {
    OFFSET -8.2249 1.95398 -2.59336
    CHANNELS 3 Zrotation Xrotation Yrotation
    JOINT RightLeg
    {
      OFFSET 43.5653 0 0
      CHANNELS 3 Zrotation Xrotation Yrotation
      JOINT RightFoot
      {
        OFFSET 40.6238 0 0
        CHANNELS 3 Zrotation Xrotation Yrotation
        JOINT RightToeBase
        {
          OFFSET 12.7242 0 0
          CHANNELS 3 Zrotation Xrotation Yrotation
          End Site
          {
            OFFSET 0 0 0
          }
        }
      }
    }
  }
  JOINT Spine
  {
    OFFSET 0.165834 0.87714 6.61349
    CHANNELS 3 Zrotation Xrotation Yrotation
    JOINT Spine1
    {
      OFFSET 7.38963 1.71661e-005 0
      CHANNELS 3 Zrotation Xrotation Yrotation
      JOINT Spine2
      {
        OFFSET 11.9445 1.14441e-005 0
        CHANNELS 3 Zrotation Xrotation Yrotation
        JOINT Spine3
        {
          OFFSET 14.7254 4.19617e-005 0
          CHANNELS 3 Zrotation Xrotation Yrotation
          JOINT Spine4
          {
            OFFSET 10.9679 0 0
            CHANNELS 3 Zrotation Xrotation Yrotation
            JOINT RightShoulder
            {
              OFFSET 2.46616 -1.6653 3.69651
              CHANNELS 3 Zrotation Xrotation Yrotation
              JOINT RightArm
              {
                OFFSET 13.0012 0 0
                CHANNELS 3 Zrotation Xrotation Yrotation
                JOINT RightForeArm
                {
                  OFFSET 28.7848 1.62311e-005 0
                  CHANNELS 3 Zrotation Xrotation Yrotation
                  JOINT RightHand
                  {
                    OFFSET 26.5688 1.62095e-005 0
                    CHANNELS 3 Zrotation Xrotation Yrotation
                    End Site
                    {
                      OFFSET 0 0 0
                    }
                  }
                }
              }
            }
            JOINT LeftShoulder
            {
              OFFSET 2.38034 -1.29275 -3.7523
              CHANNELS 3 Zrotation Xrotation Yrotation
              JOINT LeftArm
              {
                OFFSET 16.3182 6.07031e-005 0
                CHANNELS 3 Zrotation Xrotation Yrotation
                JOINT LeftForeArm
                {
                  OFFSET 27.0901 0 0
                  CHANNELS 3 Zrotation Xrotation Yrotation
                  JOINT LeftHand
                  {
                    OFFSET 24.5451 1.51738e-005 0
                    CHANNELS 3 Zrotation Xrotation Yrotation
                    End Site
                    {
                      OFFSET 0 0 0
                    }
                  }
                }
              }
            }
            JOINT Neck
            {
              OFFSET 5.0226 -0.0266342 0
              CHANNELS 3 Zrotation Xrotation Yrotation
              JOINT Head
              {
                OFFSET 6.69364 2.86102e-005 0
                CHANNELS 3 Zrotation Xrotation Yrotation
                End Site
                {
                  OFFSET 0 0 0
                }
              }
            }
          }
        }
      }
    }
  }
}
MOTION
Frames:	17
Frame Time:	0.0416667
92.8376 93.1187 114.186 -89.8051 46.3635 -87.5286 -169.517 13.777 88.618 -47.9219 17.3019 -1.9117 89.0528 19.7863 -0.130118 27.2794 -0.407901 -0.864106 177.7 23.378 90.2832 -80.7555 -5.47202 -5.34953 72.7021 -6.7692 -5.26026 12.2069 5.04512 7.8181 -0.352475 8.25631 -90.5629 10.3611 -0.959857 -1.03275 -1.30982 -1.00438 -0.989515 -23.8436 -0.605124 -1.27345 -3.83098 -0.605126 -1.27345 92.6022 -30.0259 -101.541 26.6259 -5.13736 10.5016 -44.8011 -17.9772 -82.4493 -43.4799 3.11747 -20.6884 -88.3724 -51.3162 81.4174 -10.27 1.51525 -8.55073 41.8969 13.4994 -63.5377 17.2314 -10.6695 -56.8963 25.6334 5.13469 -6.60342 -6.12868 7.15687 5.33187 
99.2414 93.9118 121.25 -94.2568 48.5632 -85.9771 -169.918 18.3611 86.9358 -48.5491 16.2109 -2.75106 82.6439 15.1923 1.13265 23.8656 -1.74477 -1.60495 176.52 5.34082 85.3583 -73.4711 -11.1725 -7.63087 67.417 -3.64619 -4.4214 14.8875 3.59987 8.82893 0.483496 8.24757 -90.3267 10.3784 0.81363 -0.719915 -1.29252 0.781176 -0.755035 -23.8286 0.992364 -0.442098 -3.81594 0.992357 -0.4421 91.5136 -28.4588 -104.297 28.3808 -2.70298 3.043 -49.4939 -17.3335 -84.3642 -45.3907 2.46269 -18.8866 -86.7427 -53.9247 84.2096 -16.5175 6.73334 10.8718 46.7462 15.4227 -62.6806 14.7663 -9.72436 -59.5743 17.2803 2.81126 -3.57181 -2.42323 3.80187 2.67613 
105.992 95.1129 128.345 -96.0737 51.1837 -86.5695 -170.679 22.2948 85.2 -43.5419 15.0031 -4.00077 73.564 8.74737 2.22445 21.2243 -2.18987 -3.51881 174.558 -6.92978 82.5701 -61.0455 -21.5719 -11.1381 63.4277 -1.3577 -1.97251 18.1605 2.48054 8.27223 1.41016 8.15362 -90.0558 10.5735 2.78306 -0.361047 -1.09455 2.76446 -0.483285 -23.6533 2.7628 0.49273 -3.6406 2.76279 0.492724 91.7234 -24.5844 -105.293 29.1223 2.2753 -3.87761 -40.7892 -13.4925 -82.2205 -44.4173 4.01026 -21.4785 -85.2336 -52.1302 86.1673 -21.0314 15.5064 26.9169 40.1244 6.75597 -62.8705 10.6052 -7.88645 -62.7222 12.4392 0.156967 -2.91114 -0.969487 0.893084 1.0142 
113.996 95.5361 136.047 -93.0547 52.5169 -89.7995 -171.41 27.992 85.7611 -35.013 20.068 -5.21779 64.1231 2.33678 2.27441 20.1802 -3.4715 -1.51789 173.847 -11.8474 82.4802 -50.7286 -32.7528 -13.4299 62.5712 -1.48626 -2.29954 21.6408 0.928067 8.998 2.00879 8.02394 -89.8948 10.8345 4.04827 -0.169615 -0.830117 4.03686 -0.34793 -23.414 3.91178 1.05683 -3.40128 3.91176 1.05682 93.3613 -19.6381 -103.549 29.637 5.06091 -10.4736 -40.2549 -11.6049 -83.4855 -43.418 4.86769 -23.9334 -86.4508 -48.7976 83.8603 -24.4201 18.5939 36.6574 38.151 1.57285 -63.2869 10.6062 -8.17644 -63.7086 13.4244 -1.84911 -2.60234 -2.45509 -1.13052 0.535911 
123.159 93.875 144.304 -87.1218 52.001 -94.1242 -170.691 37.8224 87.157 -38.0801 29.7212 -6.09744 65.6952 3.63981 0.566481 20.4544 -6.46439 5.56109 175.701 -10.2122 86.2861 -41.1914 -29.1446 -11.0037 67.8309 -5.38272 -3.66174 33.578 -3.70009 9.55693 1.89543 7.78739 -89.832 11.3043 3.85026 -0.0453228 -0.3609 3.84454 -0.215 -22.9391 3.68563 1.11554 -2.92649 3.68562 1.11554 93.8878 -17.6838 -103.057 28.3897 6.62752 -15.4471 -33.3054 -6.82326 -85.8842 -44.417 5.62787 -23.9483 -87.925 -46.0407 81.0992 -27.4665 17.5285 40.9738 40.0883 -0.0129087 -64.2324 12.5532 -9.7379 -65.1326 18.095 -1.76685 -2.58963 -5.62875 -0.960755 0.914909 
132.635 90.9017 152.564 -88.8896 50.5332 -91.5978 -165.214 44.8826 86.9025 -59.5332 25.9467 -5.30341 73.6245 8.95648 2.18055 20.562 -5.33537 3.13492 176.986 -5.92453 90.2264 -43.2616 -16.4121 -8.19895 82.1583 -14.9276 -3.64598 46.6775 -8.18583 4.83178 1.38176 8.0429 -90.1009 10.7937 2.70488 -0.450881 -0.874526 2.6824 -0.56958 -23.432 2.71524 0.383512 -3.41939 2.71522 0.383501 94.3127 -18.2361 -101.785 27.8254 5.61017 -18.4835 -31.6313 -4.16501 -89.6411 -47.5413 6.46055 -24.2904 -87.5574 -48.0532 82.0426 -26.3177 18.7443 35.6349 43.5165 1.63193 -64.5722 13.0543 -10.3687 -66.5589 21.0302 0.0964468 -1.86267 -5.1441 0.665409 1.84387 
141.068 89.0834 159.83 -93.6989 47.4896 -83.1308 -165.471 46.0813 91.9403 -80.227 20.7672 -0.140439 77.8004 11.0156 1.97314 21.1346 -5.38295 3.95834 176.656 0.891519 95.4802 -51.8179 -9.71012 -3.92753 90.4649 -19.3256 0.195897 39.2635 -5.38903 6.6167 0.643859 8.53674 -90.7331 9.80467 0.951293 -1.53018 -1.86687 0.883063 -1.57057 -24.4001 1.36716 -1.1736 -4.38748 1.36717 -1.1736 93.3017 -22.5116 -102.579 27.9821 7.38167 -15.9226 -35.5715 -3.85024 -91.3249 -44.931 5.61071 -23.9734 -85.8121 -52.5838 85.3782 -20.7826 20.1787 19.4375 43.3776 7.79289 -62.7739 13.7151 -9.86799 -62.5358 24.4479 2.18519 -4.00983 -5.98493 3.42928 3.51667 
147.053 89.3205 165.245 -95.0649 44.4568 -81.0382 -168.867 39.4287 96.3168 -89.5231 22.1768 2.872 73.1183 8.62209 5.82611 23.9921 -1.41885 -2.26534 174.299 7.27676 96.2579 -56.1446 -12.3542 -1.35156 88.5697 -19.2074 -1.83729 38.409 -5.04704 6.29034 0.141477 8.65701 -90.9406 9.55412 -0.141947 -1.85318 -2.11811 -0.223356 -1.84515 -24.6431 0.42147 -1.8102 -4.63044 0.421468 -1.81021 92.034 -24.9037 -104.508 31.5611 4.02306 -3.61325 -32.6657 -6.68081 -86.1941 -43.4524 6.03038 -25.5472 -87.0384 -54.4993 83.8789 -15.1516 19.2662 0.988074 43.8649 11.2485 -60.7641 12.7568 -8.90487 -61.4735 21.9338 3.43645 -3.11029 -3.76368 4.3192 1.87681 
151.718 90.1482 170.249 -97.2234 44.0212 -80.107 -169.898 25.8426 99.2029 -88.4902 21.5739 4.14959 71.4966 7.52164 5.71746 26.5079 -1.21114 0.41093 174.407 10.8315 95.9423 -56.5686 -12.1834 -1.40333 87.6058 -18.701 -2.49444 33.7586 -3.44765 8.15673 -0.0892143 8.52483 -90.7364 9.81922 -0.511519 -1.41966 -1.85236 -0.573472 -1.39579 -24.3814 -0.0612455 -1.50774 -4.3688 -0.0612376 -1.50774 92.1084 -27.7474 -103.303 35.8471 -1.81202 7.24596 -29.3956 -12.3052 -77.253 -39.7964 5.82599 -27.0676 -87.2811 -52.2527 83.1758 -12.2559 18.5827 -13.9251 40.4056 12.6804 -59.862 15.1234 -10.3173 -60.3705 16.4261 3.6358 -6.38128 -3.04437 5.32024 4.03675 
156.144 90.867 175.59 -97.193 48.2727 -81.4359 -168.621 12.3119 98.8837 -79.9261 23.2728 3.95356 69.2508 6.02613 4.91148 27.9628 -0.389525 0.000976138 177.82 17.6095 95.7687 -58.2138 -14.5611 -3.51998 83.6323 -16.3359 -4.30414 32.121 -2.77353 7.56464 0.0217463 8.22601 -90.4201 10.4212 -0.149236 -0.823326 -1.25001 -0.185326 -0.815962 -23.7831 0.105119 -0.830105 -3.77049 0.105091 -0.830111 92.1316 -27.114 -103.481 41.2789 -5.11238 15.2237 -22.7985 -17.1494 -67.4568 -41.7446 5.80552 -25.5847 -87.1464 -49.8457 82.9814 -10.3216 14.3341 -24.3263 37.3594 12.1925 -59.1943 16.2163 -11.1661 -60.9005 13.8028 4.55869 -7.77569 -3.35465 6.45013 4.99125 
159.468 91.67 180.6 -99.1738 48.0425 -78.0306 -169.042 -1.29529 101.293 -66.938 27.4858 5.87593 68.5234 5.88662 4.24496 27.8376 -0.658539 0.622524 178.533 19.8152 96.877 -55.9689 -16.1066 -3.08147 79.8425 -13.6522 -4.69225 29.3189 -1.57428 6.90507 -0.245158 8.28352 -90.5546 10.3023 -0.742001 -1.03742 -1.36878 -0.786936 -1.00378 -23.9012 -0.395942 -1.21243 -3.88858 -0.395931 -1.21244 91.635 -26.3459 -104.802 44.7784 -5.88083 19.7144 -17.5954 -19.7884 -59.7678 -40.7182 5.6038 -25.2514 -87.2743 -47.3041 82.3454 -10.871 7.61814 -29.7586 34.2964 11.2929 -61.1048 17.4934 -11.6423 -59.5023 14.1173 5.48166 -8.05998 -4.32849 7.39724 4.78073 
163.38 91.5576 186.736 -98.1188 48.4873 -80.2897 -168.69 -10.9107 98.7579 -47.9594 23.7215 4.85376 70.9526 7.96419 3.84292 47.761 8.34715 1.93647 178.99 26.0444 94.5919 -56.287 -17.8921 -3.67004 75.716 -10.3192 -4.12528 28.8166 -1.36938 6.86968 -0.400645 8.19108 -90.3563 10.4886 -0.961448 -0.622229 -1.1821 -0.987911 -0.57931 -23.7179 -0.730023 -0.882424 -3.70521 -0.730026 -0.882417 90.9989 -26.5798 -106.051 44.866 -2.58204 21.6154 -16.44 -24.6708 -51.9143 -39.1272 3.94973 -21.5799 -87.1725 -45.6163 82.1997 -12.1998 1.31425 -35.2773 34.2543 12.9005 -61.471 19.128 -12.3602 -58.3972 15.6527 5.77154 -8.54166 -4.99825 7.87078 5.34259 
168.058 90.9598 193.205 -98.155 47.6371 -80.0683 -166.662 -15.0707 99.3279 -35.5611 16.9357 3.13047 85.0765 17.6773 1.07477 50.7443 9.16935 5.90312 178.815 31.0319 93.7835 -54.746 -18.9286 -3.17388 71.3895 -7.15386 -3.51726 26.3877 -0.406838 6.83419 -0.407534 8.30215 -90.4701 10.2654 -1.0267 -0.846474 -1.40541 -1.06295 -0.800472 -23.9402 -0.724848 -1.11589 -3.92757 -0.724851 -1.11589 91.7318 -27.1616 -104.3 44.3457 -1.62521 20.3399 -11.2335 -23.9537 -44.1595 -39.5418 3.35107 -18.8661 -88.1752 -46.2954 80.7529 -14.525 -2.62195 -40.2377 36.7208 16.5697 -61.1456 21.285 -13.3178 -57.0831 17.5276 5.50275 -7.41815 -4.76985 7.42928 4.66565 
172.703 90.7146 199.373 -99.2219 47.0122 -79.5963 -165.72 -10.9585 99.9125 -37.2813 14.6255 1.74142 96.1925 22.7131 -4.87527 38.4233 3.12455 5.85813 178.016 33.4914 92.6005 -50.7896 -20.8896 -2.42711 67.8628 -4.76536 -2.76679 21.9539 1.08097 7.93294 -0.403214 8.46223 -90.4482 9.94492 -1.00719 -0.807696 -1.72587 -1.04176 -0.762595 -24.2608 -0.717878 -1.07305 -4.24816 -0.717901 -1.07305 90.1676 -29.3844 -106.643 41.7539 0.357196 17.2989 -6.51723 -23.4212 -34.1997 -36.5717 2.32347 -16.106 -89.0347 -47.2409 79.609 -17.6841 -3.92918 -40.6173 40.4301 19.6333 -60.306 22.4962 -13.4332 -55.0463 17.7665 5.02393 -7.36014 -3.86988 6.99697 4.28061 
175.576 91.682 204.083 -103.67 48.0213 -78.5728 -166.895 -11.0985 96.2819 -37.6694 12.988 0.727075 96.5005 22.1808 -6.03032 34.9168 1.56006 4.84455 176.544 31.018 90.2014 -48.7306 -28.5837 -2.68086 66.2021 -4.08904 -3.75472 21.1516 1.32948 8.18157 -0.243499 8.69038 -90.2055 9.4921 -0.578009 -0.363686 -2.17876 -0.59347 -0.337901 -24.7142 -0.442013 -0.520593 -4.70152 -0.441988 -0.5206 89.942 -29.3557 -107.124 41.235 -1.54867 11.5363 0.615293 -24.4355 -21.5039 -31.6992 1.46238 -14.4225 -89.7241 -49.4459 79.0234 -18.4301 -3.02456 -35.8179 40.067 22.2092 -57.3163 26.4502 -14.4038 -50.9724 14.93 4.68103 -6.87485 -2.06117 6.43016 3.78721 
177.872 93.1261 207.478 -108.412 50.0244 -75.5208 -167.843 -11.7564 93.8084 -36.9734 11.3263 0.231385 91.9195 19.8116 -3.93515 35.2319 1.81848 4.48404 175.248 26.9914 90.2643 -50.7819 -21.7942 -2.04791 66.1309 -3.39846 -1.9409 23.8001 0.102631 8.98981 0.0100968 8.73534 -89.9789 9.40261 0.0297165 0.039559 -2.26835 0.0314281 0.0382033 -24.8034 0.0164512 0.0466556 -4.7908 0.016458 0.0466557 89.9749 -31.3047 -106.316 39.4563 -3.63919 5.70449 8.41722 -26.9675 -8.43423 -32.3983 0.889485 -12.0954 -88.8336 -50.4907 80.57 -17.3682 -0.709609 -25.6761 45.2499 26.3489 -56.238 19.0322 -11.0038 -54.2443 11.4929 4.7866 -7.64044 -1.72311 6.55303 3.95249 
180.098 94.8327 209.893 -111.062 50.4759 -73.2417 -168.151 -12.2578 93.6395 -33.9105 11.8214 0.208954 88.2 18.0787 -2.6537 34.5487 1.62946 3.89694 174.131 21.9872 90.3808 -54.9561 -12.0533 -1.7486 70.174 -5.52818 -2.06663 23.0525 0.567917 8.26366 0.246766 8.6931 -90.0893 9.48796 0.45182 -0.212246 -2.18294 0.442058 -0.231926 -24.7187 0.49472 -0.0666366 -4.70611 0.494719 -0.0666375 89.7658 -29.8539 -107.278 39.9116 -2.49709 3.82461 7.45678 -32.8364 -8.1616 -24.1718 -1.27242 -4.40258 -88.4769 -51.1486 81.2228 -15.8948 3.03319 -16.7832 44.1682 31.9824 -53.9578 17.6568 -9.35672 -51.0096 8.16935 4.73226 -5.28266 -0.652478 5.79484 2.41722 
